<?xml version="1.0" standalone="no"?>
<!DOCTYPE svg PUBLIC "-//W3C//DTD SVG 20010904//EN"
 "http://www.w3.org/TR/2001/REC-SVG-20010904/DTD/svg10.dtd">
<svg version="1.0" xmlns="http://www.w3.org/2000/svg"
 width="742.000000pt" height="1280.000000pt" viewBox="0 0 742.000000 1280.000000"
 preserveAspectRatio="xMidYMid meet">
<g transform="translate(0.000000,1280.000000) scale(0.100000,-0.100000)"
fill="#000000" stroke="none">
<path d="M3489 12796 c-2 -2 -66 -9 -141 -15 -256 -21 -631 -124 -962 -262
-883 -371 -1551 -1049 -1894 -1922 -156 -395 -233 -761 -249 -1177 -21 -570
136 -1068 397 -1252 l60 -42 0 -213 c0 -234 9 -340 45 -539 69 -375 209 -710
441 -1061 52 -78 94 -144 94 -146 0 -3 -33 -38 -73 -78 -203 -205 -435 -585
-625 -1024 -298 -688 -493 -1513 -551 -2330 -6 -82 -16 -216 -23 -298 -11
-136 -10 -160 10 -306 61 -436 205 -729 517 -1050 205 -211 445 -383 753 -539
548 -278 1236 -459 1947 -512 83 -6 200 -15 261 -20 141 -13 360 -13 477 0 51
5 162 14 247 20 428 31 856 115 1232 241 1017 340 1633 975 1732 1787 8 64 20
254 27 421 28 678 -42 1309 -211 1890 -199 686 -541 1277 -892 1538 -48 37
-88 70 -88 74 0 4 32 44 71 90 370 437 601 987 658 1561 5 54 13 102 16 108 3
5 18 10 33 11 73 2 123 39 189 141 201 311 358 754 402 1138 6 52 16 134 22
181 25 193 -21 611 -101 914 -372 1408 -1690 2486 -3230 2639 -85 9 -194 20
-241 26 -83 10 -341 14 -350 6z"/>
</g>
</svg>
